<svg xmlns="http://www.w3.org/2000/svg" width="28" height="28" viewBox="0 0 28 28"><defs><style>.a{fill:#fff;}</style></defs><path class="a" d="M4.1,28h9.133V18.047H9.953V14.766h3.281v-4.1a4.106,4.106,0,0,1,4.1-4.1h4.1V9.844H18.156a1.642,1.642,0,0,0-1.641,1.641v3.281h4.774l-.547,3.281H16.516V28H23.9A4.106,4.106,0,0,0,28,23.9V4.1A4.106,4.106,0,0,0,23.9,0H4.1A4.106,4.106,0,0,0,0,4.1V23.9A4.106,4.106,0,0,0,4.1,28ZM1.641,4.1A2.464,2.464,0,0,1,4.1,1.641H23.9A2.464,2.464,0,0,1,26.359,4.1V23.9A2.464,2.464,0,0,1,23.9,26.359H18.156V19.688h3.976l1.094-6.562h-5.07V11.484h4.922V4.922H17.336a5.749,5.749,0,0,0-5.742,5.742v2.461H8.313v6.563h3.281v6.672H4.1A2.464,2.464,0,0,1,1.641,23.9Zm0,0"/></svg>