<svg xmlns="http://www.w3.org/2000/svg" width="28" height="28" viewBox="0 0 28 28"><defs><style>.a{fill:#fff;}</style></defs><g transform="translate(0.001)"><path class="a" d="M20.42,0H7.578A7.588,7.588,0,0,0,0,7.579V20.421A7.588,7.588,0,0,0,7.578,28H20.42A7.588,7.588,0,0,0,28,20.421V7.579A7.588,7.588,0,0,0,20.42,0Zm5.938,20.421a5.944,5.944,0,0,1-5.938,5.938H7.578a5.944,5.944,0,0,1-5.938-5.938V7.579A5.945,5.945,0,0,1,7.578,1.641H20.42a5.944,5.944,0,0,1,5.938,5.938Zm0,0"/><path class="a" d="M123.66,116a7.656,7.656,0,1,0,7.656,7.656A7.665,7.665,0,0,0,123.66,116Zm0,13.671a6.015,6.015,0,1,1,6.015-6.015A6.021,6.021,0,0,1,123.66,129.675Zm0,0" transform="translate(-109.661 -109.66)"/><path class="a" d="M360.239,66.285a2.262,2.262,0,1,0,2.262,2.262A2.265,2.265,0,0,0,360.239,66.285Zm0,2.883a.621.621,0,1,1,.621-.621A.622.622,0,0,1,360.239,69.168Zm0,0" transform="translate(-338.401 -62.66)"/></g></svg>